<svg xmlns="http://www.w3.org/2000/svg" viewBox="0 0 500 500"><defs><style>.cls-1{fill:#f1f2f2;}</style></defs><g id="Layer_2" data-name="Layer 2"><g id="Layer_1-2" data-name="Layer 1"><rect class="cls-1" width="500" height="500"/><path d="M292.19,292.33a94.67,94.67,0,0,0,32.56-33.94c3.41-6.1,19-34,8.94-66.95-2.12-6.95-8.72-27.37-29.58-40.82a71,71,0,0,0-40.81-11l-66.8.07q-.17,18.34-.31,36.69l-37.3.15q.92,92,1.84,183.9l13.14-13.3L174.18,190H195l-.15,96.76a501.77,501.77,0,0,1,39.36-40.51c14-12.86,28.38-24.46,35.31-45.63.94-2.86,1.54-5.29,1.91-7,2.11.83,9.5,4,13.22,12,4.14,8.84,2.07,19.94-5.27,28l-82.7,83.16.15,24.31,100.59-103.8c9.94-16.2,9.21-35.79-1.3-48.45-9.6-11.58-23.77-13-27.13-13.3l-59,.61-.31-21.71h54.81c3.75.38,30.22,3.47,46.31,27.29,1.42,2.09,14.49,22.09,9.41,47.23-3.48,17.18-13.62,27.78-24.77,39.44a133,133,0,0,1-30.72,23.85l51.05,49.3,25.38-.92ZM258.71,188.92a39.07,39.07,0,0,1-3,10.08,41,41,0,0,1-8.48,12.16c-6.72,6.92-19.91,21.31-37.61,40.35v-61Z"/></g></g></svg>