<svg xmlns="http://www.w3.org/2000/svg" viewBox="0 0 424.73 58.85"><g id="Layer_2" data-name="Layer 2"><g id="Layer_1-2" data-name="Layer 1"><path d="M35.69,58,20.81,33H18V46.81c0,5.5,2.61,10,8.71,10V58H0v-1.2c6.05,0,8.66-4.52,8.66-10V17.27c0-5.45-2.56-10-8.66-10V6.05c4.9,0,12.42-2.51,16.84-6h8.28C37.76,0,43.37,7.08,43.37,16.78v.44c-.11,6.81-3.87,13.46-12.2,15.2l8.66,13.46c2.84,4.36,5.83,10.24,11.55,10.84l1.2.11V58ZM33.51,17.27C33.51,7.36,31,2,20.27,2H18v29.1h3.7C30.19,31.06,33.51,24.74,33.51,17.27Z"/><path d="M89.85,58.58c-3.26-9.38-6.59-18.69-9.91-28q-5.56,14.06-11.44,28H66.64C63,48.22,59.67,39,56,28.77c-1.58-4.41-2.67-7.79-8-9.64V17.82H68.11v1.31c-2.94,0-4.41,1.36-4.41,3.48a6.75,6.75,0,0,0,.44,2.18l7.62,21.42C74.11,40.1,76.56,34,79,27.9l-.06-.22c-1.63-4.41-3.81-7.63-9.15-8.55V17.82H91.38v1.31c-2.89,0-4.36,1.3-4.36,3.43a7.08,7.08,0,0,0,.44,2.23L95,46.1c1.74-4.47,3.65-9.27,5.45-13.68l1.2-3.05a11.46,11.46,0,0,0,.76-4c0-3.05-1.47-5.72-4.9-6.26V17.82h15.09v1.31c-4.47,1-7.79,7.46-9.48,11.55C99.44,40,95.74,49.31,91.82,58.58Z"/><path d="M108.17,49.15a11.27,11.27,0,0,1,5.72-9.86c2.07-1.2,4.3-1.8,6.59-2.95,4.3-2.12,7.14-3.59,8.28-7.35a11.29,11.29,0,0,0,.44-3c0-3.16-1.42-6.32-4.91-6.32a5,5,0,0,0-1.25.11c-.71,1.08-3.21,5.39-4.09,7-1.14,2.07-2.67,2.95-4.08,2.95a4.23,4.23,0,0,1-4.09-4.25c0-1.69,1-3.6,3.81-5.18a22.92,22.92,0,0,1,10.9-2.89c6.76,0,12.86,3.49,12.86,12.15V45.77c0,2.67.87,4.47,2.4,4.47a4.85,4.85,0,0,0,3.05-1.74l.87.76c-1.58,2.18-3.59,4.52-4.74,5.88-1.91,2.18-4.19,3.44-6.1,3.44-2.45,0-4.31-1.91-4.31-6.11L129.47,49a19.8,19.8,0,0,1-3.6,5.94,12.47,12.47,0,0,1-5.77,3.54,12.84,12.84,0,0,1-2.84.33C111.49,58.85,108.17,54.16,108.17,49.15ZM126,51.55c2.13-2.4,3-6.38,3-9.27v-9.8c-1.91,2.56-4.09,3.92-6.82,5.88a11.49,11.49,0,0,0-4.79,9.26v.49c.16,3.6,2.18,5.62,4.52,5.62A5.69,5.69,0,0,0,126,51.55Z"/><path d="M169.85,58V56.78c4.9,0,5.34-4.8,5.45-9.21l0-15.59a20.6,20.6,0,0,0-.22-3.26c-.6-4.25-3-6-5.66-6a7.35,7.35,0,0,0-6.27,4,16.81,16.81,0,0,0-1.74,7.63V47.41c0,4.52.16,9.37,5.5,9.37V58H146.58V56.78c4.9,0,5.29-4.8,5.45-9.21V32.75c0-3.76-.71-7.63-5.45-7.63V23.87c3.82-.17,12.1-3.71,13.62-6.05h1.26v8A15.05,15.05,0,0,1,174.92,17c5.23,0,9.8,3.27,9.8,10.89V47.41c0,4.52.17,9.37,5.51,9.37V58Z"/><path d="M207.34,58.25l-.93-.06c-9.48-.21-13.51-8.82-13.51-17.92,0-8.83,3.76-18.15,11.33-21.31a19.35,19.35,0,0,1,7.25-1.41A17.88,17.88,0,0,1,219.05,19V16.35A16.06,16.06,0,0,0,218,9.7a4.56,4.56,0,0,0-4.36-2.45V6a5.44,5.44,0,0,0,.93-.11h.05c4.09-.59,11.23-3.76,12.65-5.88h1.2l0,16.56v28c0,3.76.38,8.77,5,8.77h.49v1.2L222,58h-2.35L219.54,51a19.84,19.84,0,0,1-4,4.47,12.8,12.8,0,0,1-7.79,2.83Zm11.71-10V23.92a6.57,6.57,0,0,0-6.21-4.09,8.82,8.82,0,0,0-2.61.44c-4.91,1.69-7.58,9.54-7.58,17.05,0,7.8,2.89,15.26,9.21,15.26C214.8,52.42,217,51,219.05,48.22Z"/><path d="M238.13,49.15a11.27,11.27,0,0,1,5.72-9.86c2.07-1.2,4.3-1.8,6.59-2.95,4.3-2.12,7.14-3.59,8.28-7.35a11.29,11.29,0,0,0,.44-3c0-3.16-1.42-6.32-4.91-6.32a5,5,0,0,0-1.25.11c-.71,1.08-3.21,5.39-4.09,7-1.14,2.07-2.67,2.95-4.08,2.95a4.23,4.23,0,0,1-4.09-4.25c0-1.69,1-3.6,3.82-5.18a22.85,22.85,0,0,1,10.89-2.89c6.76,0,12.86,3.49,12.86,12.15V45.77c0,2.67.87,4.47,2.4,4.47a4.85,4.85,0,0,0,3.05-1.74l.87.76c-1.58,2.18-3.59,4.52-4.74,5.88-1.9,2.18-4.19,3.44-6.1,3.44-2.45,0-4.31-1.91-4.31-6.11L259.43,49a19.8,19.8,0,0,1-3.6,5.94,12.42,12.42,0,0,1-5.77,3.54,12.82,12.82,0,0,1-2.83.33C241.45,58.85,238.13,54.16,238.13,49.15Zm17.81,2.4c2.13-2.4,2.95-6.38,2.95-9.27v-9.8C257,35,254.8,36.4,252.07,38.36a11.49,11.49,0,0,0-4.79,9.26v.49c.16,3.6,2.18,5.62,4.52,5.62A5.69,5.69,0,0,0,255.94,51.55Z"/><path d="M299.81,58V56.78c4.9,0,5.34-4.8,5.45-9.21L305.31,32a20.6,20.6,0,0,0-.22-3.26c-.6-4.25-3-6-5.66-6a7.35,7.35,0,0,0-6.27,4,16.81,16.81,0,0,0-1.74,7.63V47.41c0,4.52.16,9.37,5.5,9.37V58H276.54V56.78c4.91,0,5.29-4.8,5.45-9.21V32.75c0-3.76-.71-7.63-5.45-7.63V23.87c3.82-.17,12.1-3.71,13.62-6.05h1.26v8A15.06,15.06,0,0,1,304.88,17c5.23,0,9.8,3.27,9.8,10.89V47.41c0,4.52.17,9.37,5.51,9.37V58Z"/><path d="M346.34,58V56.78c4.91,0,5.34-4.8,5.45-9.21L351.85,32a21.86,21.86,0,0,0-.22-3.26c-.6-4.25-3.05-6-5.67-6a7.32,7.32,0,0,0-6.26,4A16.83,16.83,0,0,0,338,34.33V47.41c0,4.52.17,9.37,5.51,9.37V58H323.08V56.78c4.9,0,5.28-4.8,5.45-9.21V32.75c0-3.76-.71-7.63-5.45-7.63V23.87c3.81-.17,12.09-3.71,13.62-6.05H338v8A15.08,15.08,0,0,1,351.41,17c5.23,0,9.81,3.27,9.81,10.89V47.41c0,4.52.16,9.37,5.5,9.37V58Z"/><path d="M369.5,49.15a11.28,11.28,0,0,1,5.73-9.86c2.07-1.2,4.3-1.8,6.59-2.95,4.3-2.12,7.14-3.59,8.28-7.35a11.29,11.29,0,0,0,.44-3c0-3.16-1.42-6.32-4.91-6.32a5,5,0,0,0-1.25.11c-.71,1.08-3.22,5.39-4.09,7-1.14,2.07-2.67,2.95-4.08,2.95a4.23,4.23,0,0,1-4.09-4.25c0-1.69,1-3.6,3.81-5.18a22.92,22.92,0,0,1,10.9-2.89c6.76,0,12.86,3.49,12.86,12.15V45.77c0,2.67.87,4.47,2.4,4.47a4.87,4.87,0,0,0,3.05-1.74l.87.76c-1.58,2.18-3.6,4.52-4.74,5.88-1.91,2.18-4.2,3.44-6.1,3.44-2.45,0-4.31-1.91-4.31-6.11L390.81,49a19.8,19.8,0,0,1-3.6,5.94,12.47,12.47,0,0,1-5.77,3.54,12.84,12.84,0,0,1-2.84.33C372.83,58.85,369.5,54.16,369.5,49.15Zm17.82,2.4c2.13-2.4,2.94-6.38,2.94-9.27v-9.8c-1.9,2.56-4.08,3.92-6.81,5.88a11.49,11.49,0,0,0-4.79,9.26v.49c.16,3.6,2.18,5.62,4.52,5.62A5.71,5.71,0,0,0,387.32,51.55Z"/><rect x="411.12" y="45.83" width="13.61" height="13.02" rx="6.51"/></g></g></svg>